# xmcd
#
# Track frame offsets: 
#        150
#        6258
#        16935
#        24373
#        30579
#        34083
#        40281
#        45314
#        52632
#        57355
#        59655
#        61676
#        62484
#        65836
#        73506
#        135867
#        208622
#        232579
#        237220
#        253594
#        266493
#
# Disc length: 3802 seconds
#
# Revision: 0
# Processed by: cddbd v1.5.2PL0 Copyright (c) Steve Scherf et al.
# Submitted via: ExactAudioCopy v0.95b3
#
DISCID=0d0ed815
DTITLE=The Beatles  - AB  Road - Complete Purple Chick Set v1.1 Jan.13
DTITLE=Various Artist - D1  FLAC
DYEAR=1900
DGENRE=
TTITLE0=Dialogue
TTITLE1=Dialogue
TTITLE2=Dialogue
TTITLE3=Dialogue
TTITLE4=Dialogue
TTITLE5=Dialogue
TTITLE6=Dialogue
TTITLE7=Dialogue
TTITLE8=Dialogue
TTITLE9=Dialogue
TTITLE10=Dialogue
TTITLE11=Dialogue
TTITLE12=Dialogue
TTITLE13=Dialogue
TTITLE14=Dialogue
TTITLE15=Dialogue
TTITLE16=Dialogue
TTITLE17=Ob-La-Di, Ob-La-Da 13.01
TTITLE18=Ob-La-Di, Ob-La-Da 13.02
TTITLE19=Sleep On It, Otis 13.03
TTITLE20=Dialogue
EXTD=
EXTT0=
EXTT1=
EXTT2=
EXTT3=
EXTT4=
EXTT5=
EXTT6=
EXTT7=
EXTT8=
EXTT9=
EXTT10=
EXTT11=
EXTT12=
EXTT13=
EXTT14=
EXTT15=
EXTT16=
EXTT17=
EXTT18=
EXTT19=
EXTT20=
PLAYORDER=
